<svg width="74" height="74" viewBox="0 0 74 74" fill="none" xmlns="http://www.w3.org/2000/svg">
<path d="M40.6668 40.6666H33.3335V18.6666H40.6668M40.6668 55.3333H33.3335V48H40.6668M37.0002 0.333313C32.185 0.333313 27.417 1.28172 22.9684 3.1244C18.5198 4.96707 14.4777 7.66792 11.0729 11.0727C4.19658 17.9491 0.333496 27.2754 0.333496 37C0.333496 46.7246 4.19658 56.0509 11.0729 62.9272C14.4777 66.332 18.5198 69.0329 22.9684 70.8756C27.417 72.7182 32.185 73.6666 37.0002 73.6666C46.7248 73.6666 56.0511 69.8036 62.9274 62.9272C69.8037 56.0509 73.6668 46.7246 73.6668 37C73.6668 32.1848 72.7184 27.4169 70.8757 22.9683C69.0331 18.5196 66.3322 14.4775 62.9274 11.0727C59.5226 7.66792 55.4805 4.96707 51.0319 3.1244C46.5833 1.28172 41.8153 0.333313 37.0002 0.333313Z" fill="#E74C3C"/>
</svg>
