<svg xmlns="http://www.w3.org/2000/svg" xmlns:xlink="http://www.w3.org/1999/xlink" width="500" zoomAndPan="magnify" viewBox="0 0 375 374.999991" height="500" preserveAspectRatio="xMidYMid meet" version="1.0"><path stroke-linecap="butt" transform="matrix(0.129263, 0, 0, 0.129243, -348.432102, -564.373547)" fill-opacity="1" fill="#1abc9c" fill-rule="evenodd" stroke-linejoin="miter" d="M 3255.000462 6119.99237 C 4047.985245 6216.014117 4705.013374 6109.988215 4763.004221 6422.988282 C 4232.98783 7941.987637 3670.999415 6706.006109 3255.000462 6119.99237 Z M 3255.000462 6119.99237 " stroke="#1abc9c" stroke-width="3" stroke-opacity="1" stroke-miterlimit="4"/><path stroke-linecap="butt" transform="matrix(0.129263, 0, 0, 0.129243, -348.432102, -564.373547)" fill-opacity="1" fill="#1abc9c" fill-rule="evenodd" stroke-linejoin="miter" d="M 3149.988377 4541.995705 L 4428.990242 4541.995705 C 3692.999069 4730.986572 3213.992865 4985.986722 2970.002196 5538.99582 C 2723.986834 5174.01042 2478.001692 4545.985277 3149.988377 4541.995705 Z M 3149.988377 4541.995705 " stroke="#1abc9c" stroke-width="3" stroke-opacity="1" stroke-miterlimit="4"/><path stroke-linecap="butt" transform="matrix(0.129263, 0, 0, 0.129243, -348.432102, -564.373547)" fill-opacity="1" fill="#1abc9c" fill-rule="evenodd" stroke-linejoin="miter" d="M 4971.003697 6240.011997 C 4834.986605 5525.002093 3068.003403 6325.999366 3223.995455 5569.008282 C 3484.999592 5078.986066 4192.010453 4783.999522 5077.013019 4575.000347 C 6144.993478 4321.994983 5096.98798 5979.994658 4971.003697 6240.011997 Z M 4971.003697 6240.011997 " stroke="#1abc9c" stroke-width="3" stroke-opacity="1" stroke-miterlimit="4"/></svg>