<svg width="26" height="26" viewBox="0 0 26 26" fill="none" xmlns="http://www.w3.org/2000/svg">
<path d="M13 0.428589C6.05793 0.428589 0.378067 6.09583 0.378067 13.0757C0.378067 19.3867 4.99769 24.6248 11.031 25.5714V16.7361H7.825V13.0757H11.031V10.2863C11.031 7.11821 12.9116 5.37638 15.802 5.37638C17.1778 5.37638 18.6167 5.6162 18.6167 5.6162V8.73381H17.0264C15.4613 8.73381 14.969 9.7057 14.969 10.7028V13.0757H18.4779L17.9099 16.7361H14.969V25.5714C17.9433 25.1017 20.6516 23.5841 22.6052 21.2927C24.5587 19.0012 25.6287 16.0869 25.6219 13.0757C25.6219 6.09583 19.942 0.428589 13 0.428589Z" fill="black"/>
</svg>
