<svg width="25" height="25" viewBox="0 0 25 25" fill="none" xmlns="http://www.w3.org/2000/svg">
<path d="M12.4968 8.42689C10.2933 8.42689 8.49507 10.2251 8.49507 12.4286C8.49507 14.6321 10.2933 16.4303 12.4968 16.4303C14.7003 16.4303 16.4985 14.6321 16.4985 12.4286C16.4985 10.2251 14.7003 8.42689 12.4968 8.42689ZM24.4989 12.4286C24.4989 10.7715 24.5139 9.12936 24.4208 7.47524C24.3278 5.55394 23.8895 3.84879 22.4845 2.44384C21.0766 1.03589 19.3744 0.600597 17.4531 0.507534C15.796 0.414472 14.1539 0.429482 12.4998 0.429482C10.8426 0.429482 9.20054 0.414472 7.54642 0.507534C5.62513 0.600597 3.91997 1.03889 2.51502 2.44384C1.10707 3.85179 0.67178 5.55394 0.578717 7.47524C0.485654 9.13236 0.500664 10.7745 0.500664 12.4286C0.500664 14.0827 0.485654 15.7278 0.578717 17.3819C0.67178 19.3032 1.11008 21.0084 2.51502 22.4133C3.92298 23.8213 5.62513 24.2566 7.54642 24.3496C9.20354 24.4427 10.8457 24.4277 12.4998 24.4277C14.1569 24.4277 15.799 24.4427 17.4531 24.3496C19.3744 24.2566 21.0796 23.8183 22.4845 22.4133C23.8925 21.0054 24.3278 19.3032 24.4208 17.3819C24.5169 15.7278 24.4989 14.0857 24.4989 12.4286ZM12.4968 18.5857C9.08947 18.5857 6.33961 15.8359 6.33961 12.4286C6.33961 9.02129 9.08947 6.27143 12.4968 6.27143C15.9041 6.27143 18.6539 9.02129 18.6539 12.4286C18.6539 15.8359 15.9041 18.5857 12.4968 18.5857ZM18.9061 7.45723C18.1106 7.45723 17.4681 6.8148 17.4681 6.01926C17.4681 5.22372 18.1106 4.58129 18.9061 4.58129C19.7016 4.58129 20.3441 5.22372 20.3441 6.01926C20.3443 6.20816 20.3073 6.39526 20.2351 6.56983C20.1629 6.7444 20.057 6.90301 19.9234 7.03659C19.7899 7.17016 19.6312 7.27607 19.4567 7.34825C19.2821 7.42043 19.095 7.45747 18.9061 7.45723Z" fill="black"/>
</svg>
