<svg width="26" height="22" viewBox="0 0 26 22" fill="none" xmlns="http://www.w3.org/2000/svg">
<path d="M25.5714 3.18796C24.646 3.60861 23.6485 3.88503 22.6149 4.01724C23.6725 3.38025 24.4898 2.37069 24.8744 1.15682C23.8768 1.75775 22.7711 2.1784 21.6053 2.41877C20.6558 1.38517 19.3218 0.784241 17.8074 0.784241C14.9831 0.784241 12.6755 3.09181 12.6755 5.94021C12.6755 6.34884 12.7236 6.74545 12.8077 7.11803C8.52909 6.9017 4.7192 4.84652 2.18329 1.73371C1.7386 2.49088 1.48621 3.38025 1.48621 4.3177C1.48621 6.10847 2.3876 7.69492 3.78176 8.59631C2.92844 8.59631 2.13521 8.35594 1.43813 7.99539V8.03144C1.43813 10.5313 3.21688 12.6225 5.57252 13.0913C4.81636 13.2991 4.02217 13.3279 3.25294 13.1754C3.57937 14.2 4.21868 15.0964 5.08098 15.7389C5.94329 16.3813 6.98524 16.7373 8.06037 16.7569C6.23795 18.1998 3.97887 18.9796 1.65447 18.9683C1.24584 18.9683 0.837205 18.9443 0.428574 18.8962C2.7121 20.3625 5.4283 21.2158 8.3368 21.2158C17.8074 21.2158 23.0115 13.3557 23.0115 6.54114C23.0115 6.31279 23.0115 6.09645 22.9995 5.8681C24.009 5.14698 24.8744 4.23357 25.5714 3.18796Z" fill="black"/>
</svg>
