<svg width="28" height="20" viewBox="0 0 28 20" fill="none" xmlns="http://www.w3.org/2000/svg">
<path d="M11.3333 14L18.2533 10L11.3333 6.00002V14ZM26.7467 3.56002C26.92 4.18669 27.04 5.02669 27.12 6.09335C27.2133 7.16002 27.2533 8.08002 27.2533 8.88002L27.3333 10C27.3333 12.92 27.12 15.0667 26.7467 16.44C26.4133 17.64 25.64 18.4134 24.44 18.7467C23.8133 18.92 22.6667 19.04 20.9067 19.12C19.1733 19.2134 17.5867 19.2534 16.12 19.2534L14 19.3334C8.41334 19.3334 4.93334 19.12 3.56 18.7467C2.36001 18.4134 1.58667 17.64 1.25334 16.44C1.08001 15.8134 0.960005 14.9734 0.880005 13.9067C0.786672 12.84 0.746672 11.92 0.746672 11.12L0.666672 10C0.666672 7.08002 0.880005 4.93335 1.25334 3.56002C1.58667 2.36002 2.36001 1.58669 3.56 1.25335C4.18667 1.08002 5.33334 0.96002 7.09334 0.88002C8.82667 0.786687 10.4133 0.746687 11.88 0.746687L14 0.666687C19.5867 0.666687 23.0667 0.88002 24.44 1.25335C25.64 1.58669 26.4133 2.36002 26.7467 3.56002Z" fill="black"/>
</svg>
